<svg width="95" height="48" viewBox="0 0 95 48" fill="none" xmlns="http://www.w3.org/2000/svg">
<path d="M82.8204 47.32C81.3404 47.32 79.9604 47.1 78.6804 46.66C77.4004 46.22 76.3604 45.6 75.5604 44.8C74.7604 44 74.3604 43.04 74.3604 41.92C74.3604 41.32 74.5004 40.76 74.7804 40.24C75.1004 39.68 75.6004 39.4 76.2804 39.4C76.6404 39.4 77.0204 39.5 77.4204 39.7C78.1404 40.1 79.0604 40.48 80.1804 40.84C81.3004 41.16 82.4804 41.32 83.7204 41.32C85.1204 41.32 86.3604 41.12 87.4404 40.72C88.5204 40.32 89.0604 39.76 89.0604 39.04C89.0604 38.48 88.6404 38.08 87.8004 37.84C87.0004 37.6 85.6404 37.34 83.7204 37.06C82.4004 36.82 81.1204 36.54 79.8804 36.22C78.6404 35.9 77.6204 35.36 76.8204 34.6C76.0204 33.8 75.6204 32.64 75.6204 31.12C75.6204 29.64 76.0204 28.22 76.8204 26.86C77.6604 25.46 78.9004 24.3 80.5404 23.38C82.1804 22.46 84.1804 22 86.5404 22C87.7804 22 88.9804 22.14 90.1404 22.42C91.3004 22.7 92.2604 23.12 93.0204 23.68C93.7804 24.24 94.1604 24.94 94.1604 25.78C94.1604 26.5 93.9004 27.16 93.3804 27.76C92.9004 28.36 92.3204 28.86 91.6404 29.26C91.0004 29.62 90.4604 29.8 90.0204 29.8C89.7004 29.8 89.3204 29.58 88.8804 29.14C88.2004 28.58 87.4404 28.2 86.6004 28C85.8004 27.76 85.0004 27.64 84.2004 27.64C83.0004 27.64 82.0204 27.82 81.2604 28.18C80.5404 28.54 80.1804 29 80.1804 29.56C80.1804 30.08 80.4804 30.5 81.0804 30.82C81.7204 31.14 82.5004 31.38 83.4204 31.54C84.3404 31.66 85.2204 31.78 86.0604 31.9C88.3804 32.22 90.2204 32.78 91.5804 33.58C92.9404 34.34 93.6204 35.7 93.6204 37.66C93.6204 39.18 93.1804 40.7 92.3004 42.22C91.4604 43.7 90.2204 44.92 88.5804 45.88C86.9804 46.84 85.0604 47.32 82.8204 47.32Z" fill="#534040"/>
<path d="M72.7629 6.68405L78.9127 9.36218L70.1467 29.4917C69.7019 30.514 69.0092 31.4093 68.1313 32.0967L65.3127 34.3036C65.1767 34.4101 65.0144 34.4779 64.843 34.4997C64.6716 34.5216 64.4975 34.4967 64.3392 34.4277C64.1808 34.3587 64.044 34.2482 63.9432 34.1079C63.8425 33.9675 63.7816 33.8026 63.7669 33.6304L63.4626 30.0635C63.3679 28.9526 63.5515 27.8357 63.9969 26.8136L72.7629 6.68405Z" fill="#553636"/>
<path fill-rule="evenodd" clip-rule="evenodd" d="M78.7771 1.27352C77.9616 0.918459 77.0384 0.901865 76.2106 1.22739C75.3829 1.55292 74.7183 2.19392 74.3631 3.00939L73.5283 4.92625L79.6782 7.60438L80.5129 5.68752C80.868 4.87199 80.8846 3.94882 80.5591 3.12105C80.2335 2.29329 79.5926 1.62873 78.7771 1.27352Z" fill="#3D2626"/>
<path d="M14.5205 7.58008C18.4003 7.58011 21.5004 8.59979 23.8203 10.6396C26.1803 12.6796 27.3603 15.3999 27.3604 18.7998C27.3604 20.8796 26.9404 22.7997 26.1006 24.5596C25.2606 26.3195 24.1402 28.3597 22.7402 29.6797C21.6704 30.8601 18.77 31.891 18.168 31.8506C14.7967 32.1921 12.4281 31.3354 9.36035 30C9.43383 29.7148 9.65338 29.1335 9.90625 28.9824C10.1591 28.8314 10.4612 28.786 10.7471 28.8564L10.748 28.8535C10.4606 28.783 10.2129 28.6017 10.0596 28.3486C9.90629 28.0955 9.85996 27.7913 9.93066 27.5039C10.0014 27.2166 10.1834 26.9687 10.4365 26.8154C10.6898 26.6621 10.9938 26.616 11.2812 26.6865L11.2832 26.6797C11.0047 26.5989 10.7678 26.4128 10.624 26.1611C10.4804 25.9095 10.4409 25.6118 10.5127 25.3311C14.3549 26.6978 16.4554 27.3652 19.3604 27C19.91 26.7879 20.4817 26.3803 20.8604 26C22.2604 24.76 22.0801 22.7998 22.0801 20.8398C22.08 18.8 21.3205 17.2 19.8008 16.04C18.2808 14.88 16.3199 14.2998 13.9199 14.2998C13.0402 14.2998 12.1404 14.3801 11.2207 14.54C10.3007 14.66 9.37996 14.8401 8.45996 15.0801C8.33996 17.7201 8.06011 20.7201 7.62012 24.0801C7.38014 26.0799 7.15995 28.0597 6.95996 30.0195C6.79997 31.9395 6.72071 33.6999 6.7207 35.2998C6.7207 36.6996 6.84015 37.9396 7.08008 39.0195C7.36005 40.0594 7.90032 40.9598 8.7002 41.7197C9.26006 42.2796 9.5399 42.8797 9.54004 43.5195C9.54004 44.3995 9.04004 45.1999 8.04004 45.9199C7.04012 46.6398 5.74041 47 4.14062 47C3.66068 47 3.16056 46.9197 2.64062 46.7598C2.16066 46.5998 1.76042 46.22 1.44043 45.6201C1.12046 45.0202 0.959991 44.1002 0.959961 42.8604C0.959961 41.8604 1.0402 40.6 1.2002 39.0801C1.4002 37.5201 1.63992 35.8596 1.91992 34.0996C2.19988 32.2998 2.42009 30.4001 2.58008 28.4004C2.78008 26.4004 2.87988 24.3798 2.87988 22.3398C2.87988 21.5399 2.86031 20.6797 2.82031 19.7598C2.78031 18.8398 2.70007 17.9395 2.58008 17.0596C2.30008 17.2196 2.02023 17.3605 1.74023 17.4805C1.50037 17.5604 1.26037 17.5996 1.02051 17.5996C0.340528 17.5996 1.98141e-05 16.94 0 15.6201C0 14.4202 0.260324 13.4201 0.780273 12.6201C1.34027 11.7801 2.34027 10.9797 3.78027 10.2197C5.1802 9.45977 6.82032 8.84034 8.7002 8.36035C10.6202 7.84035 12.5605 7.58008 14.5205 7.58008Z" fill="#534040"/>
<path d="M8.99512 25.8643C9.25117 26.2976 9.32478 26.8151 9.19922 27.3027C9.07368 27.7901 8.75952 28.2077 8.32617 28.4639L7.36035 26.8301L8.99512 25.8643Z" fill="#534040"/>
<path d="M33.9682 46.66C32.8882 46.66 32.2082 46.42 31.9282 45.94C31.6482 45.46 31.5882 44.78 31.7482 43.9C32.3482 40.94 32.8682 37.72 33.3082 34.24C33.7482 30.76 33.9682 27.26 33.9682 23.74C33.9682 21.34 33.8682 19.2 33.6682 17.32C33.5082 15.44 32.9282 13.68 31.9282 12.04C31.7682 11.8 31.6282 11.58 31.5082 11.38C31.4282 11.14 31.3882 10.94 31.3882 10.78C31.3882 10.26 31.6682 9.75998 32.2282 9.27998C32.8282 8.75998 33.5282 8.31998 34.3282 7.95998C35.1282 7.59998 35.8882 7.41998 36.6082 7.41998C37.5682 7.41998 38.2482 7.73998 38.6482 8.37998C39.0882 9.01998 39.3482 9.81998 39.4282 10.78C39.5082 11.7 39.5482 12.64 39.5482 13.6C39.5482 14.56 39.4882 15.64 39.3682 16.84C39.2882 18 39.1882 19.28 39.0682 20.68C38.8682 22.52 38.6682 24.54 38.4682 26.74C38.2682 28.9 38.1682 31.16 38.1682 33.52C38.1682 36.2 38.2682 38.4 38.4682 40.12C38.6682 41.8 38.8082 42.9 38.8882 43.42C39.0082 44.1 38.8082 44.68 38.2882 45.16C37.7682 45.64 37.1082 46 36.3082 46.24C35.5082 46.52 34.7282 46.66 33.9682 46.66ZM57.3604 43.9C55.6461 45.34 52.8404 45.8 51.3604 45C49.9204 44.2 49.4082 43.5 48.1282 42.22C46.8482 40.94 45.6882 39.54 44.6482 38.02C43.6482 36.5 42.7682 35 42.0082 33.52C41.2882 32.04 40.7482 30.74 40.3882 29.62C40.0282 28.54 39.8482 27.6 39.8482 26.8C39.8482 25.92 40.1682 24.86 40.8082 23.62C41.3282 22.66 42.0882 21.5 43.0882 20.14C44.0882 18.78 45.2282 17.36 46.5082 15.88C47.8282 14.4 49.1882 13.02 50.5882 11.74C52.0282 10.46 53.4682 9.41998 54.9082 8.61998C56.3482 7.81998 57.6882 7.41998 58.9282 7.41998C60.0482 7.41998 60.8482 7.75998 61.3282 8.43998C61.8482 9.07998 62.1082 9.81998 62.1082 10.66C62.1082 11.34 61.9682 12.06 61.6882 12.82C61.4082 13.58 61.0282 14.22 60.5482 14.74C60.0682 15.26 59.5082 15.52 58.8682 15.52C58.4682 15.52 58.0882 15.48 57.7282 15.4C57.4082 15.28 56.9882 15.22 56.4682 15.22C55.9482 15.22 55.3282 15.32 54.6082 15.52C53.9282 15.72 53.1682 16.1 52.3282 16.66C51.6482 17.14 50.8082 17.86 49.8082 18.82C48.8082 19.74 47.7882 20.8 46.7482 22C45.7082 23.2 44.7482 24.48 43.8682 25.84C44.4282 27.2 45.1882 28.58 46.1482 29.98C47.1082 31.34 48.1082 32.62 49.1482 33.82C51.0282 35.98 52.8282 37.56 54.5482 38.56C56.3082 39.56 60.0204 35.5 62.5404 35.5C63.0603 35.5 63.4003 35.62 63.5603 35.86C63.7603 36.1 63.8604 36.48 63.8604 37C63.8604 38.16 60.8804 40.3 60.0004 41.38C58.8604 42.5 59.3604 42.22 57.3604 43.9Z" fill="#534040"/>
</svg>
