<svg width="137" height="137" viewBox="0 0 137 137" fill="none" xmlns="http://www.w3.org/2000/svg">
<path d="M137 68.5C137 106.332 106.332 137 68.5 137C30.6685 137 0 106.332 0 68.5C0 30.6685 30.6685 0 68.5 0C106.332 0 137 30.6685 137 68.5Z" fill="url(#paint0_linear_19_63)"/>
<path d="M104.82 91.32C103.34 91.32 101.96 91.1 100.68 90.66C99.4004 90.22 98.3604 89.6 97.5604 88.8C96.7604 88 96.3604 87.04 96.3604 85.92C96.3604 85.32 96.5004 84.76 96.7804 84.24C97.1004 83.68 97.6004 83.4 98.2804 83.4C98.6404 83.4 99.0204 83.5 99.4204 83.7C100.14 84.1 101.06 84.48 102.18 84.84C103.3 85.16 104.48 85.32 105.72 85.32C107.12 85.32 108.36 85.12 109.44 84.72C110.52 84.32 111.06 83.76 111.06 83.04C111.06 82.48 110.64 82.08 109.8 81.84C109 81.6 107.64 81.34 105.72 81.06C104.4 80.82 103.12 80.54 101.88 80.22C100.64 79.9 99.6204 79.36 98.8204 78.6C98.0204 77.8 97.6204 76.64 97.6204 75.12C97.6204 73.64 98.0204 72.22 98.8204 70.86C99.6604 69.46 100.9 68.3 102.54 67.38C104.18 66.46 106.18 66 108.54 66C109.78 66 110.98 66.14 112.14 66.42C113.3 66.7 114.26 67.12 115.02 67.68C115.78 68.24 116.16 68.94 116.16 69.78C116.16 70.5 115.9 71.16 115.38 71.76C114.9 72.36 114.32 72.86 113.64 73.26C113 73.62 112.46 73.8 112.02 73.8C111.7 73.8 111.32 73.58 110.88 73.14C110.2 72.58 109.44 72.2 108.6 72C107.8 71.76 107 71.64 106.2 71.64C105 71.64 104.02 71.82 103.26 72.18C102.54 72.54 102.18 73 102.18 73.56C102.18 74.08 102.48 74.5 103.08 74.82C103.72 75.14 104.5 75.38 105.42 75.54C106.34 75.66 107.22 75.78 108.06 75.9C110.38 76.22 112.22 76.78 113.58 77.58C114.94 78.34 115.62 79.7 115.62 81.66C115.62 83.18 115.18 84.7 114.3 86.22C113.46 87.7 112.22 88.92 110.58 89.88C108.98 90.84 107.06 91.32 104.82 91.32Z" fill="#534040"/>
<path d="M94.7629 50.6841L100.913 53.3622L92.1467 73.4917C91.7019 74.514 91.0092 75.4093 90.1313 76.0967L87.3127 78.3036C87.1767 78.4101 87.0144 78.4779 86.843 78.4997C86.6716 78.5216 86.4975 78.4967 86.3392 78.4277C86.1808 78.3587 86.044 78.2482 85.9432 78.1079C85.8425 77.9675 85.7816 77.8026 85.7669 77.6304L85.4626 74.0635C85.3679 72.9527 85.5515 71.8357 85.9969 70.8136L94.7629 50.6841Z" fill="#553636"/>
<path fill-rule="evenodd" clip-rule="evenodd" d="M100.777 45.2735C99.9616 44.9185 99.0384 44.9019 98.2106 45.2274C97.3829 45.5529 96.7183 46.1939 96.3631 47.0094L95.5283 48.9262L101.678 51.6044L102.513 49.6875C102.868 48.872 102.885 47.9488 102.559 47.1211C102.234 46.2933 101.593 45.6287 100.777 45.2735Z" fill="#3D2626"/>
<path d="M36.5205 51.5801C40.4003 51.5801 43.5004 52.5998 45.8203 54.6397C48.1803 56.6796 49.3603 59.3999 49.3604 62.7998C49.3604 64.8796 48.9404 66.7997 48.1006 68.5596C47.2606 70.3195 46.1402 72.3597 44.7402 73.6797C43.6704 74.8601 40.77 75.891 40.168 75.8506C36.7967 76.1921 34.4281 75.3354 31.3604 74C31.4338 73.7149 31.6534 73.1335 31.9062 72.9824C32.1591 72.8314 32.4612 72.786 32.7471 72.8564L32.748 72.8535C32.4606 72.783 32.2129 72.6017 32.0596 72.3486C31.9063 72.0955 31.86 71.7913 31.9307 71.5039C32.0014 71.2166 32.1834 70.9687 32.4365 70.8154C32.6898 70.6622 32.9938 70.616 33.2812 70.6865L33.2832 70.6797C33.0047 70.5989 32.7678 70.4128 32.624 70.1611C32.4804 69.9095 32.4409 69.6118 32.5127 69.3311C36.3549 70.6978 38.4554 71.3652 41.3604 71C41.91 70.7879 42.4817 70.3803 42.8604 70C44.2604 68.76 44.0801 66.7998 44.0801 64.8398C44.08 62.8001 43.3205 61.2 41.8008 60.04C40.2808 58.88 38.3199 58.2998 35.9199 58.2998C35.0402 58.2998 34.1404 58.3801 33.2207 58.54C32.3007 58.66 31.38 58.8401 30.46 59.0801C30.34 61.7201 30.0601 64.7201 29.6201 68.0801C29.3801 70.0799 29.1599 72.0597 28.96 74.0195C28.8 75.9395 28.7207 77.6999 28.7207 79.2998C28.7207 80.6996 28.8402 81.9397 29.0801 83.0195C29.3601 84.0594 29.9003 84.9598 30.7002 85.7197C31.2601 86.2796 31.5399 86.8797 31.54 87.5195C31.54 88.3995 31.04 89.1999 30.04 89.9199C29.0401 90.6398 27.7404 91 26.1406 91C25.6607 91 25.1606 90.9197 24.6406 90.7598C24.1607 90.5998 23.7604 90.2201 23.4404 89.6201C23.1205 89.0202 22.96 88.1002 22.96 86.8604C22.96 85.8604 23.0402 84.6 23.2002 83.0801C23.4002 81.5201 23.6399 79.8596 23.9199 78.0996C24.1999 76.2998 24.4201 74.4001 24.5801 72.4004C24.7801 70.4004 24.8799 68.3798 24.8799 66.3398C24.8799 65.5399 24.8603 64.6797 24.8203 63.7598C24.7803 62.8399 24.7001 61.9395 24.5801 61.0596C24.3001 61.2196 24.0202 61.3605 23.7402 61.4805C23.5004 61.5604 23.2604 61.5996 23.0205 61.5996C22.3405 61.5996 22 60.94 22 59.6201C22 58.4202 22.2603 57.4201 22.7803 56.6201C23.3403 55.7801 24.3403 54.9797 25.7803 54.2197C27.1802 53.4598 28.8203 52.8403 30.7002 52.3604C32.6202 51.8404 34.5605 51.5801 36.5205 51.5801Z" fill="#534040"/>
<path d="M30.9951 69.8643C31.2512 70.2976 31.3248 70.8151 31.1992 71.3027C31.0737 71.7901 30.7595 72.2077 30.3262 72.4639L29.3604 70.8301L30.9951 69.8643Z" fill="#534040"/>
<path d="M55.9682 90.66C54.8882 90.66 54.2082 90.42 53.9282 89.94C53.6482 89.46 53.5882 88.78 53.7482 87.9C54.3482 84.94 54.8682 81.72 55.3082 78.24C55.7482 74.76 55.9682 71.26 55.9682 67.74C55.9682 65.34 55.8682 63.2 55.6682 61.32C55.5082 59.44 54.9282 57.68 53.9282 56.04C53.7682 55.8 53.6282 55.58 53.5082 55.38C53.4282 55.14 53.3882 54.94 53.3882 54.78C53.3882 54.26 53.6682 53.76 54.2282 53.28C54.8282 52.76 55.5282 52.32 56.3282 51.96C57.1282 51.6 57.8882 51.42 58.6082 51.42C59.5682 51.42 60.2482 51.74 60.6482 52.38C61.0882 53.02 61.3482 53.82 61.4282 54.78C61.5082 55.7 61.5482 56.64 61.5482 57.6C61.5482 58.56 61.4882 59.64 61.3682 60.84C61.2882 62 61.1882 63.28 61.0682 64.68C60.8682 66.52 60.6682 68.54 60.4682 70.74C60.2682 72.9 60.1682 75.16 60.1682 77.52C60.1682 80.2 60.2682 82.4 60.4682 84.12C60.6682 85.8 60.8082 86.9 60.8882 87.42C61.0082 88.1 60.8082 88.68 60.2882 89.16C59.7682 89.64 59.1082 90 58.3082 90.24C57.5082 90.52 56.7282 90.66 55.9682 90.66ZM79.3604 87.9C77.6461 89.34 74.8404 89.8 73.3604 89C71.9204 88.2 71.4082 87.5 70.1282 86.22C68.8482 84.94 67.6882 83.54 66.6482 82.02C65.6482 80.5 64.7682 79 64.0082 77.52C63.2882 76.04 62.7482 74.74 62.3882 73.62C62.0282 72.54 61.8482 71.6 61.8482 70.8C61.8482 69.92 62.1682 68.86 62.8082 67.62C63.3282 66.66 64.0882 65.5 65.0882 64.14C66.0882 62.78 67.2282 61.36 68.5082 59.88C69.8282 58.4 71.1882 57.02 72.5882 55.74C74.0282 54.46 75.4682 53.42 76.9082 52.62C78.3482 51.82 79.6882 51.42 80.9282 51.42C82.0482 51.42 82.8482 51.76 83.3282 52.44C83.8482 53.08 84.1082 53.82 84.1082 54.66C84.1082 55.34 83.9682 56.06 83.6882 56.82C83.4082 57.58 83.0282 58.22 82.5482 58.74C82.0682 59.26 81.5082 59.52 80.8682 59.52C80.4682 59.52 80.0882 59.48 79.7282 59.4C79.4082 59.28 78.9882 59.22 78.4682 59.22C77.9482 59.22 77.3282 59.32 76.6082 59.52C75.9282 59.72 75.1682 60.1 74.3282 60.66C73.6482 61.14 72.8082 61.86 71.8082 62.82C70.8082 63.74 69.7882 64.8 68.7482 66C67.7082 67.2 66.7482 68.48 65.8682 69.84C66.4282 71.2 67.1882 72.58 68.1482 73.98C69.1082 75.34 70.1082 76.62 71.1482 77.82C73.0282 79.98 74.8282 81.56 76.5482 82.56C78.3082 83.56 82.0204 79.5 84.5404 79.5C85.0604 79.5 85.4003 79.62 85.5603 79.86C85.7603 80.1 85.8604 80.48 85.8604 81C85.8604 82.16 82.8804 84.3 82.0004 85.38C80.8604 86.5 81.3604 86.22 79.3604 87.9Z" fill="#534040"/>
<defs>
<linearGradient id="paint0_linear_19_63" x1="117" y1="118" x2="24.5" y2="16.5" gradientUnits="userSpaceOnUse">
<stop stop-color="white"/>
<stop offset="1" stop-color="#FFE3E3"/>
</linearGradient>
</defs>
</svg>
