<svg width="95" height="67" viewBox="0 0 95 67" fill="none" xmlns="http://www.w3.org/2000/svg">
<path d="M4.12757 61.1278C3.47416 61.1278 2.91308 60.9844 2.44433 60.6974C1.97842 60.4105 1.61905 60.0142 1.36621 59.5085C1.11621 59 0.991207 58.4148 0.991207 57.7528C0.991207 57.0881 1.11905 56.5014 1.37473 55.9929C1.63041 55.4815 1.99121 55.0838 2.45712 54.7997C2.92587 54.5128 3.47984 54.3693 4.11905 54.3693C4.6503 54.3693 5.12047 54.4673 5.52956 54.6634C5.94149 54.8565 6.26962 55.1307 6.51393 55.4858C6.75825 55.8381 6.89746 56.25 6.93155 56.7216H5.45712C5.39746 56.4062 5.25541 56.1435 5.03098 55.9332C4.80939 55.7202 4.51251 55.6136 4.14035 55.6136C3.82501 55.6136 3.54803 55.6989 3.30939 55.8693C3.07075 56.0369 2.88467 56.2784 2.75115 56.5938C2.62047 56.9091 2.55513 57.2869 2.55513 57.7273C2.55513 58.1733 2.62047 58.5568 2.75115 58.8778C2.88183 59.196 3.06507 59.4418 3.30087 59.6151C3.5395 59.7855 3.81933 59.8707 4.14035 59.8707C4.36763 59.8707 4.57075 59.8281 4.74973 59.7429C4.93155 59.6548 5.08354 59.5284 5.2057 59.3636C5.32785 59.1989 5.41166 58.9986 5.45712 58.7628H6.93155C6.89462 59.2259 6.75825 59.6364 6.52246 59.9943C6.28666 60.3494 5.96564 60.6278 5.55939 60.8295C5.15314 61.0284 4.67587 61.1278 4.12757 61.1278ZM8.67824 61V54.4545H10.174V55.5455H10.2422C10.3615 55.1676 10.566 54.8764 10.8558 54.6719C11.1484 54.4645 11.4822 54.3608 11.8572 54.3608C11.9424 54.3608 12.0376 54.3651 12.1427 54.3736C12.2507 54.3793 12.3402 54.3892 12.4112 54.4034V55.8224C12.3459 55.7997 12.2422 55.7798 12.1001 55.7628C11.9609 55.7429 11.826 55.733 11.6953 55.733C11.414 55.733 11.1612 55.794 10.9368 55.9162C10.7152 56.0355 10.5405 56.2017 10.4126 56.4148C10.2848 56.6278 10.2209 56.8736 10.2209 57.152V61H8.67824ZM16.5442 61.1278C15.888 61.1278 15.3212 60.9915 14.844 60.7188C14.3695 60.4432 14.0045 60.054 13.7488 59.5511C13.4931 59.0455 13.3653 58.4503 13.3653 57.7656C13.3653 57.0923 13.4931 56.5014 13.7488 55.9929C14.0073 55.4815 14.3681 55.0838 14.8312 54.7997C15.2942 54.5128 15.8383 54.3693 16.4633 54.3693C16.8667 54.3693 17.2474 54.4347 17.6053 54.5653C17.9661 54.6932 18.2843 54.892 18.5599 55.1619C18.8383 55.4318 19.057 55.7756 19.2161 56.1932C19.3752 56.608 19.4548 57.1023 19.4548 57.6761V58.1491H14.0897V57.1094H17.9761C17.9732 56.8139 17.9093 56.5511 17.7843 56.321C17.6593 56.0881 17.4846 55.9048 17.2602 55.7713C17.0386 55.6378 16.78 55.571 16.4846 55.571C16.1692 55.571 15.8923 55.6477 15.6536 55.8011C15.415 55.9517 15.2289 56.1506 15.0954 56.3977C14.9647 56.642 14.8979 56.9105 14.8951 57.2031V58.1108C14.8951 58.4915 14.9647 58.8182 15.1039 59.0909C15.2431 59.3608 15.4377 59.5682 15.6877 59.7131C15.9377 59.8551 16.2303 59.9261 16.5656 59.9261C16.79 59.9261 16.9931 59.8949 17.1749 59.8324C17.3567 59.767 17.5144 59.6719 17.6479 59.5469C17.7815 59.4219 17.8823 59.267 17.9505 59.0824L19.3908 59.2443C19.2999 59.625 19.1266 59.9574 18.871 60.2415C18.6181 60.5227 18.2942 60.7415 17.8994 60.8977C17.5045 61.0511 17.0528 61.1278 16.5442 61.1278ZM23.1233 61.1321C22.7086 61.1321 22.335 61.0582 22.0026 60.9105C21.673 60.7599 21.4117 60.5384 21.2185 60.2457C21.0282 59.9531 20.933 59.5923 20.933 59.1634C20.933 58.794 21.0012 58.4886 21.1375 58.2472C21.2739 58.0057 21.46 57.8125 21.6958 57.6676C21.9316 57.5227 22.1972 57.4134 22.4926 57.3395C22.7909 57.2628 23.0992 57.2074 23.4174 57.1733C23.8009 57.1335 24.112 57.098 24.3506 57.0668C24.5892 57.0327 24.7625 56.9815 24.8705 56.9134C24.9813 56.8423 25.0367 56.733 25.0367 56.5852V56.5597C25.0367 56.2386 24.9415 55.9901 24.7512 55.8139C24.5608 55.6378 24.2867 55.5497 23.9287 55.5497C23.5509 55.5497 23.2512 55.6321 23.0296 55.7969C22.8108 55.9616 22.6631 56.1562 22.5864 56.3807L21.1461 56.1761C21.2597 55.7784 21.4472 55.446 21.7086 55.179C21.9699 54.9091 22.2895 54.7074 22.6674 54.5739C23.0452 54.4375 23.4628 54.3693 23.9202 54.3693C24.2355 54.3693 24.5495 54.4062 24.862 54.4801C25.1745 54.554 25.46 54.6761 25.7185 54.8466C25.977 55.0142 26.1844 55.2429 26.3407 55.5327C26.4997 55.8224 26.5793 56.1847 26.5793 56.6193V61H25.0963V60.1009H25.0452C24.9514 60.2827 24.8193 60.4531 24.6489 60.6122C24.4813 60.7685 24.2696 60.8949 24.0139 60.9915C23.7611 61.0852 23.4642 61.1321 23.1233 61.1321ZM23.5239 59.9986C23.8336 59.9986 24.102 59.9375 24.3293 59.8153C24.5566 59.6903 24.7313 59.5256 24.8534 59.321C24.9784 59.1165 25.0409 58.8935 25.0409 58.652V57.8807C24.9926 57.9205 24.9103 57.9574 24.7938 57.9915C24.6801 58.0256 24.5523 58.0554 24.4103 58.081C24.2682 58.1065 24.1276 58.1293 23.9884 58.1491C23.8492 58.169 23.7284 58.1861 23.6262 58.2003C23.3961 58.2315 23.1901 58.2827 23.0083 58.3537C22.8264 58.4247 22.683 58.5241 22.5779 58.652C22.4728 58.777 22.4202 58.9389 22.4202 59.1378C22.4202 59.4219 22.5239 59.6364 22.7313 59.7812C22.9387 59.9261 23.2029 59.9986 23.5239 59.9986ZM31.8789 54.4545V55.6477H28.1161V54.4545H31.8789ZM29.0451 52.8864H30.5877V59.0312C30.5877 59.2386 30.6189 59.3977 30.6814 59.5085C30.7468 59.6165 30.832 59.6903 30.9371 59.7301C31.0422 59.7699 31.1587 59.7898 31.2866 59.7898C31.3832 59.7898 31.4712 59.7827 31.5508 59.7685C31.6332 59.7543 31.6957 59.7415 31.7383 59.7301L31.9982 60.9361C31.9158 60.9645 31.7979 60.9957 31.6445 61.0298C31.4939 61.0639 31.3093 61.0838 31.0905 61.0895C30.7042 61.1009 30.3562 61.0426 30.0465 60.9148C29.7368 60.7841 29.4911 60.5824 29.3093 60.3097C29.1303 60.0369 29.0422 59.696 29.0451 59.2869V52.8864ZM33.649 61V54.4545H35.1916V61H33.649ZM34.4246 53.5256C34.1803 53.5256 33.97 53.4446 33.7939 53.2827C33.6178 53.1179 33.5297 52.9205 33.5297 52.6903C33.5297 52.4574 33.6178 52.2599 33.7939 52.098C33.97 51.9332 34.1803 51.8509 34.4246 51.8509C34.6717 51.8509 34.882 51.9332 35.0553 52.098C35.2314 52.2599 35.3195 52.4574 35.3195 52.6903C35.3195 52.9205 35.2314 53.1179 35.0553 53.2827C34.882 53.4446 34.6717 53.5256 34.4246 53.5256ZM43.1045 54.4545L40.7736 61H39.069L36.738 54.4545H38.3829L39.8872 59.3168H39.9554L41.4639 54.4545H43.1045ZM47.3271 61.1278C46.6708 61.1278 46.104 60.9915 45.6268 60.7188C45.1523 60.4432 44.7873 60.054 44.5316 59.5511C44.2759 59.0455 44.1481 58.4503 44.1481 57.7656C44.1481 57.0923 44.2759 56.5014 44.5316 55.9929C44.7901 55.4815 45.1509 55.0838 45.614 54.7997C46.0771 54.5128 46.6211 54.3693 47.2461 54.3693C47.6495 54.3693 48.0302 54.4347 48.3881 54.5653C48.7489 54.6932 49.0671 54.892 49.3427 55.1619C49.6211 55.4318 49.8398 55.7756 49.9989 56.1932C50.158 56.608 50.2376 57.1023 50.2376 57.6761V58.1491H44.8725V57.1094H48.7589C48.756 56.8139 48.6921 56.5511 48.5671 56.321C48.4421 56.0881 48.2674 55.9048 48.043 55.7713C47.8214 55.6378 47.5629 55.571 47.2674 55.571C46.9521 55.571 46.6751 55.6477 46.4364 55.8011C46.1978 55.9517 46.0117 56.1506 45.8782 56.3977C45.7475 56.642 45.6808 56.9105 45.6779 57.2031V58.1108C45.6779 58.4915 45.7475 58.8182 45.8867 59.0909C46.0259 59.3608 46.2205 59.5682 46.4705 59.7131C46.7205 59.8551 47.0131 59.9261 47.3484 59.9261C47.5728 59.9261 47.7759 59.8949 47.9577 59.8324C48.1396 59.767 48.2972 59.6719 48.4308 59.5469C48.5643 59.4219 48.6651 59.267 48.7333 59.0824L50.1737 59.2443C50.0827 59.625 49.9094 59.9574 49.6538 60.2415C49.4009 60.5227 49.0771 60.7415 48.6822 60.8977C48.2873 61.0511 47.8356 61.1278 47.3271 61.1278ZM60.6525 56.1847L59.2462 56.3381C59.2064 56.196 59.1368 56.0625 59.0374 55.9375C58.9408 55.8125 58.8101 55.7116 58.6454 55.6349C58.4806 55.5582 58.2789 55.5199 58.0403 55.5199C57.7192 55.5199 57.4493 55.5895 57.2306 55.7287C57.0147 55.8679 56.9082 56.0483 56.911 56.2699C56.9082 56.4602 56.9778 56.6151 57.1198 56.7344C57.2647 56.8537 57.5033 56.9517 57.8357 57.0284L58.9522 57.267C59.5715 57.4006 60.0317 57.6122 60.3329 57.902C60.6368 58.1918 60.7903 58.571 60.7931 59.0398C60.7903 59.4517 60.6695 59.8153 60.4309 60.1307C60.1951 60.4432 59.867 60.6875 59.4465 60.8636C59.0261 61.0398 58.5431 61.1278 57.9976 61.1278C57.1965 61.1278 56.5516 60.9602 56.063 60.625C55.5743 60.2869 55.2832 59.8168 55.1894 59.2145L56.6937 59.0696C56.7618 59.3651 56.9067 59.5881 57.1283 59.7386C57.3499 59.8892 57.6383 59.9645 57.9934 59.9645C58.3599 59.9645 58.6539 59.8892 58.8755 59.7386C59.0999 59.5881 59.2121 59.402 59.2121 59.1804C59.2121 58.9929 59.1397 58.8381 58.9948 58.7159C58.8528 58.5937 58.6312 58.5 58.33 58.4347L57.2136 58.2003C56.5857 58.0696 56.1212 57.8494 55.8201 57.5398C55.5189 57.2273 55.3698 56.8324 55.3726 56.3551C55.3698 55.9517 55.4792 55.6023 55.7008 55.3068C55.9252 55.0085 56.2363 54.7784 56.634 54.6165C57.0346 54.4517 57.4962 54.3693 58.0189 54.3693C58.786 54.3693 59.3897 54.5327 59.83 54.8594C60.2732 55.1861 60.5474 55.6278 60.6525 56.1847ZM65.8136 54.4545V55.6477H62.0508V54.4545H65.8136ZM62.9798 52.8864H64.5224V59.0312C64.5224 59.2386 64.5536 59.3977 64.6161 59.5085C64.6815 59.6165 64.7667 59.6903 64.8718 59.7301C64.9769 59.7699 65.0934 59.7898 65.2212 59.7898C65.3178 59.7898 65.4059 59.7827 65.4855 59.7685C65.5678 59.7543 65.6303 59.7415 65.673 59.7301L65.9329 60.9361C65.8505 60.9645 65.7326 60.9957 65.5792 61.0298C65.4286 61.0639 65.244 61.0838 65.0252 61.0895C64.6389 61.1009 64.2909 61.0426 63.9812 60.9148C63.6715 60.7841 63.4258 60.5824 63.244 60.3097C63.065 60.0369 62.9769 59.696 62.9798 59.2869V52.8864ZM71.7556 58.2472V54.4545H73.2982V61H71.8025V59.8366H71.7343C71.5865 60.2031 71.3436 60.5028 71.0056 60.7358C70.6704 60.9687 70.257 61.0852 69.7655 61.0852C69.3365 61.0852 68.9573 60.9901 68.6277 60.7997C68.301 60.6065 68.0454 60.3267 67.8607 59.9602C67.676 59.5909 67.5837 59.1449 67.5837 58.6222V54.4545H69.1263V58.3835C69.1263 58.7983 69.24 59.1278 69.4672 59.3722C69.6945 59.6165 69.9928 59.7386 70.3621 59.7386C70.5894 59.7386 70.8096 59.6832 71.0226 59.5724C71.2357 59.4616 71.4104 59.2969 71.5468 59.0781C71.686 58.8565 71.7556 58.5795 71.7556 58.2472ZM77.7935 61.1151C77.2793 61.1151 76.819 60.983 76.4128 60.7188C76.0065 60.4545 75.6855 60.071 75.4497 59.5682C75.2139 59.0653 75.096 58.4545 75.096 57.7358C75.096 57.0085 75.2153 56.3949 75.454 55.8949C75.6955 55.392 76.0207 55.0128 76.4298 54.7571C76.8389 54.4986 77.2949 54.3693 77.7977 54.3693C78.1813 54.3693 78.4966 54.4347 78.7438 54.5653C78.9909 54.6932 79.1869 54.848 79.3318 55.0298C79.4767 55.2088 79.5889 55.3778 79.6685 55.5369H79.7324V52.2727H81.2793V61H79.7622V59.9688H79.6685C79.5889 60.1278 79.4739 60.2969 79.3233 60.4759C79.1727 60.652 78.9739 60.8026 78.7267 60.9276C78.4795 61.0526 78.1685 61.1151 77.7935 61.1151ZM78.2239 59.8494C78.5506 59.8494 78.829 59.7614 79.0591 59.5852C79.2892 59.4062 79.4639 59.1577 79.5832 58.8395C79.7026 58.5213 79.7622 58.1506 79.7622 57.7273C79.7622 57.304 79.7026 56.9361 79.5832 56.6236C79.4668 56.3111 79.2935 56.0682 79.0634 55.8949C78.8361 55.7216 78.5563 55.6349 78.2239 55.6349C77.8801 55.6349 77.5932 55.7244 77.3631 55.9034C77.133 56.0824 76.9597 56.3295 76.8432 56.6449C76.7267 56.9602 76.6685 57.321 76.6685 57.7273C76.6685 58.1364 76.7267 58.5014 76.8432 58.8224C76.9625 59.1406 77.1372 59.392 77.3673 59.5767C77.6003 59.7585 77.8858 59.8494 78.2239 59.8494ZM83.4031 61V54.4545H84.9457V61H83.4031ZM84.1786 53.5256C83.9343 53.5256 83.7241 53.4446 83.548 53.2827C83.3718 53.1179 83.2838 52.9205 83.2838 52.6903C83.2838 52.4574 83.3718 52.2599 83.548 52.098C83.7241 51.9332 83.9343 51.8509 84.1786 51.8509C84.4258 51.8509 84.636 51.9332 84.8093 52.098C84.9855 52.2599 85.0735 52.4574 85.0735 52.6903C85.0735 52.9205 84.9855 53.1179 84.8093 53.2827C84.636 53.4446 84.4258 53.5256 84.1786 53.5256ZM89.8671 61.1278C89.2279 61.1278 88.6739 60.9872 88.2052 60.706C87.7364 60.4247 87.3728 60.0312 87.1143 59.5256C86.8586 59.0199 86.7307 58.429 86.7307 57.7528C86.7307 57.0767 86.8586 56.4844 87.1143 55.9759C87.3728 55.4673 87.7364 55.0724 88.2052 54.7912C88.6739 54.5099 89.2279 54.3693 89.8671 54.3693C90.5063 54.3693 91.0603 54.5099 91.529 54.7912C91.9978 55.0724 92.36 55.4673 92.6157 55.9759C92.8742 56.4844 93.0035 57.0767 93.0035 57.7528C93.0035 58.429 92.8742 59.0199 92.6157 59.5256C92.36 60.0312 91.9978 60.4247 91.529 60.706C91.0603 60.9872 90.5063 61.1278 89.8671 61.1278ZM89.8756 59.892C90.2222 59.892 90.512 59.7969 90.7449 59.6065C90.9779 59.4134 91.1512 59.1548 91.2648 58.831C91.3813 58.5071 91.4395 58.1463 91.4395 57.7486C91.4395 57.348 91.3813 56.9858 91.2648 56.6619C91.1512 56.3352 90.9779 56.0753 90.7449 55.8821C90.512 55.6889 90.2222 55.5923 89.8756 55.5923C89.5205 55.5923 89.2251 55.6889 88.9893 55.8821C88.7563 56.0753 88.5816 56.3352 88.4651 56.6619C88.3515 56.9858 88.2947 57.348 88.2947 57.7486C88.2947 58.1463 88.3515 58.5071 88.4651 58.831C88.5816 59.1548 88.7563 59.4134 88.9893 59.6065C89.2251 59.7969 89.5205 59.892 89.8756 59.892Z" fill="black"/>
<path d="M82.8204 47.32C81.3404 47.32 79.9604 47.1 78.6804 46.66C77.4004 46.22 76.3604 45.6 75.5604 44.8C74.7604 44 74.3604 43.04 74.3604 41.92C74.3604 41.32 74.5004 40.76 74.7804 40.24C75.1004 39.68 75.6004 39.4 76.2804 39.4C76.6404 39.4 77.0204 39.5 77.4204 39.7C78.1404 40.1 79.0604 40.48 80.1804 40.84C81.3004 41.16 82.4804 41.32 83.7204 41.32C85.1204 41.32 86.3604 41.12 87.4404 40.72C88.5204 40.32 89.0604 39.76 89.0604 39.04C89.0604 38.48 88.6404 38.08 87.8004 37.84C87.0004 37.6 85.6404 37.34 83.7204 37.06C82.4004 36.82 81.1204 36.54 79.8804 36.22C78.6404 35.9 77.6204 35.36 76.8204 34.6C76.0204 33.8 75.6204 32.64 75.6204 31.12C75.6204 29.64 76.0204 28.22 76.8204 26.86C77.6604 25.46 78.9004 24.3 80.5404 23.38C82.1804 22.46 84.1804 22 86.5404 22C87.7804 22 88.9804 22.14 90.1404 22.42C91.3004 22.7 92.2604 23.12 93.0204 23.68C93.7804 24.24 94.1604 24.94 94.1604 25.78C94.1604 26.5 93.9004 27.16 93.3804 27.76C92.9004 28.36 92.3204 28.86 91.6404 29.26C91.0004 29.62 90.4604 29.8 90.0204 29.8C89.7004 29.8 89.3204 29.58 88.8804 29.14C88.2004 28.58 87.4404 28.2 86.6004 28C85.8004 27.76 85.0004 27.64 84.2004 27.64C83.0004 27.64 82.0204 27.82 81.2604 28.18C80.5404 28.54 80.1804 29 80.1804 29.56C80.1804 30.08 80.4804 30.5 81.0804 30.82C81.7204 31.14 82.5004 31.38 83.4204 31.54C84.3404 31.66 85.2204 31.78 86.0604 31.9C88.3804 32.22 90.2204 32.78 91.5804 33.58C92.9404 34.34 93.6204 35.7 93.6204 37.66C93.6204 39.18 93.1804 40.7 92.3004 42.22C91.4604 43.7 90.2204 44.92 88.5804 45.88C86.9804 46.84 85.0604 47.32 82.8204 47.32Z" fill="#534040"/>
<path d="M72.7629 6.68405L78.9127 9.36218L70.1467 29.4917C69.7019 30.514 69.0092 31.4093 68.1313 32.0967L65.3127 34.3036C65.1767 34.4101 65.0144 34.4779 64.843 34.4997C64.6716 34.5216 64.4975 34.4967 64.3392 34.4277C64.1808 34.3587 64.044 34.2482 63.9432 34.1079C63.8425 33.9675 63.7816 33.8026 63.7669 33.6304L63.4626 30.0635C63.3679 28.9526 63.5515 27.8357 63.9969 26.8136L72.7629 6.68405Z" fill="#553636"/>
<path fill-rule="evenodd" clip-rule="evenodd" d="M78.7771 1.27352C77.9616 0.918459 77.0384 0.901865 76.2106 1.22739C75.3829 1.55292 74.7183 2.19392 74.3631 3.00939L73.5283 4.92625L79.6782 7.60438L80.5129 5.68752C80.868 4.87199 80.8846 3.94882 80.5591 3.12105C80.2335 2.29329 79.5926 1.62873 78.7771 1.27352Z" fill="#3D2626"/>
<path d="M14.5205 7.58008C18.4003 7.58011 21.5004 8.59979 23.8203 10.6396C26.1803 12.6796 27.3603 15.3999 27.3604 18.7998C27.3604 20.8796 26.9404 22.7997 26.1006 24.5596C25.2606 26.3195 24.1402 28.3597 22.7402 29.6797C21.6704 30.8601 18.77 31.891 18.168 31.8506C14.7967 32.1921 12.4281 31.3354 9.36035 30C9.43383 29.7148 9.65338 29.1335 9.90625 28.9824C10.1591 28.8314 10.4612 28.786 10.7471 28.8564L10.748 28.8535C10.4606 28.783 10.2129 28.6017 10.0596 28.3486C9.90629 28.0955 9.85996 27.7913 9.93066 27.5039C10.0014 27.2166 10.1834 26.9687 10.4365 26.8154C10.6898 26.6621 10.9938 26.616 11.2812 26.6865L11.2832 26.6797C11.0047 26.5989 10.7678 26.4128 10.624 26.1611C10.4804 25.9095 10.4409 25.6118 10.5127 25.3311C14.3549 26.6978 16.4554 27.3652 19.3604 27C19.91 26.7879 20.4817 26.3803 20.8604 26C22.2604 24.76 22.0801 22.7998 22.0801 20.8398C22.08 18.8 21.3205 17.2 19.8008 16.04C18.2808 14.88 16.3199 14.2998 13.9199 14.2998C13.0402 14.2998 12.1404 14.3801 11.2207 14.54C10.3007 14.66 9.37996 14.8401 8.45996 15.0801C8.33996 17.7201 8.06011 20.7201 7.62012 24.0801C7.38014 26.0799 7.15995 28.0597 6.95996 30.0195C6.79997 31.9395 6.72071 33.6999 6.7207 35.2998C6.7207 36.6996 6.84015 37.9396 7.08008 39.0195C7.36005 40.0594 7.90032 40.9598 8.7002 41.7197C9.26006 42.2796 9.5399 42.8797 9.54004 43.5195C9.54004 44.3995 9.04004 45.1999 8.04004 45.9199C7.04012 46.6398 5.74041 47 4.14062 47C3.66068 47 3.16056 46.9197 2.64062 46.7598C2.16066 46.5998 1.76042 46.22 1.44043 45.6201C1.12046 45.0202 0.959991 44.1002 0.959961 42.8604C0.959961 41.8604 1.0402 40.6 1.2002 39.0801C1.4002 37.5201 1.63992 35.8596 1.91992 34.0996C2.19988 32.2998 2.42009 30.4001 2.58008 28.4004C2.78008 26.4004 2.87988 24.3798 2.87988 22.3398C2.87988 21.5399 2.86031 20.6797 2.82031 19.7598C2.78031 18.8398 2.70007 17.9395 2.58008 17.0596C2.30009 17.2196 2.02023 17.3605 1.74023 17.4805C1.50037 17.5604 1.26037 17.5996 1.02051 17.5996C0.340528 17.5996 1.98141e-05 16.94 0 15.6201C0 14.4202 0.260324 13.4201 0.780273 12.6201C1.34027 11.7801 2.34027 10.9797 3.78027 10.2197C5.1802 9.45977 6.82032 8.84034 8.7002 8.36035C10.6202 7.84035 12.5605 7.58008 14.5205 7.58008Z" fill="#534040"/>
<path d="M8.99512 25.8643C9.25117 26.2976 9.32478 26.8151 9.19922 27.3027C9.07368 27.7901 8.75952 28.2077 8.32617 28.4639L7.36035 26.8301L8.99512 25.8643Z" fill="#534040"/>
<path d="M33.9682 46.66C32.8882 46.66 32.2082 46.42 31.9282 45.94C31.6482 45.46 31.5882 44.78 31.7482 43.9C32.3482 40.94 32.8682 37.72 33.3082 34.24C33.7482 30.76 33.9682 27.26 33.9682 23.74C33.9682 21.34 33.8682 19.2 33.6682 17.32C33.5082 15.44 32.9282 13.68 31.9282 12.04C31.7682 11.8 31.6282 11.58 31.5082 11.38C31.4282 11.14 31.3882 10.94 31.3882 10.78C31.3882 10.26 31.6682 9.75998 32.2282 9.27998C32.8282 8.75998 33.5282 8.31998 34.3282 7.95998C35.1282 7.59998 35.8882 7.41998 36.6082 7.41998C37.5682 7.41998 38.2482 7.73998 38.6482 8.37998C39.0882 9.01998 39.3482 9.81998 39.4282 10.78C39.5082 11.7 39.5482 12.64 39.5482 13.6C39.5482 14.56 39.4882 15.64 39.3682 16.84C39.2882 18 39.1882 19.28 39.0682 20.68C38.8682 22.52 38.6682 24.54 38.4682 26.74C38.2682 28.9 38.1682 31.16 38.1682 33.52C38.1682 36.2 38.2682 38.4 38.4682 40.12C38.6682 41.8 38.8082 42.9 38.8882 43.42C39.0082 44.1 38.8082 44.68 38.2882 45.16C37.7682 45.64 37.1082 46 36.3082 46.24C35.5082 46.52 34.7282 46.66 33.9682 46.66ZM57.3604 43.9C55.6461 45.34 52.8404 45.8 51.3604 45C49.9204 44.2 49.4082 43.5 48.1282 42.22C46.8482 40.94 45.6882 39.54 44.6482 38.02C43.6482 36.5 42.7682 35 42.0082 33.52C41.2882 32.04 40.7482 30.74 40.3882 29.62C40.0282 28.54 39.8482 27.6 39.8482 26.8C39.8482 25.92 40.1682 24.86 40.8082 23.62C41.3282 22.66 42.0882 21.5 43.0882 20.14C44.0882 18.78 45.2282 17.36 46.5082 15.88C47.8282 14.4 49.1882 13.02 50.5882 11.74C52.0282 10.46 53.4682 9.41998 54.9082 8.61998C56.3482 7.81998 57.6882 7.41998 58.9282 7.41998C60.0482 7.41998 60.8482 7.75998 61.3282 8.43998C61.8482 9.07998 62.1082 9.81998 62.1082 10.66C62.1082 11.34 61.9682 12.06 61.6882 12.82C61.4082 13.58 61.0282 14.22 60.5482 14.74C60.0682 15.26 59.5082 15.52 58.8682 15.52C58.4682 15.52 58.0882 15.48 57.7282 15.4C57.4082 15.28 56.9882 15.22 56.4682 15.22C55.9482 15.22 55.3282 15.32 54.6082 15.52C53.9282 15.72 53.1682 16.1 52.3282 16.66C51.6482 17.14 50.8082 17.86 49.8082 18.82C48.8082 19.74 47.7882 20.8 46.7482 22C45.7082 23.2 44.7482 24.48 43.8682 25.84C44.4282 27.2 45.1882 28.58 46.1482 29.98C47.1082 31.34 48.1082 32.62 49.1482 33.82C51.0282 35.98 52.8282 37.56 54.5482 38.56C56.3082 39.56 60.0204 35.5 62.5404 35.5C63.0604 35.5 63.4003 35.62 63.5603 35.86C63.7603 36.1 63.8604 36.48 63.8604 37C63.8604 38.16 60.8804 40.3 60.0004 41.38C58.8604 42.5 59.3604 42.22 57.3604 43.9Z" fill="#534040"/>
</svg>
